<svg xmlns="http://www.w3.org/2000/svg" viewBox="0 0 24 24" id="Expand-6-Alternate--Streamline-Ultimate.svg" height="24" width="24"><desc>Expand 6 Alternate Streamline Icon: https://streamlinehq.com</desc><g><path d="M10.9309 5.1863C10.9309 4.3991 10.2927 3.7609 9.5055 3.7609H4.5164C2.1546 3.7609 0.24 5.6755 0.24 8.0372V19.4409C0.24 21.8026 2.1546 23.7172 4.5164 23.7172H15.92C18.2818 23.7172 20.1964 21.8026 20.1964 19.4409V15.8772C20.1964 14.7799 19.0085 14.0941 18.0582 14.6428C17.6171 14.8974 17.3455 15.368 17.3455 15.8772V19.4409C17.3455 20.2281 16.7073 20.8663 15.92 20.8663H4.5164C3.7291 20.8663 3.0909 20.2281 3.0909 19.4409V8.0372C3.0909 7.25 3.7291 6.6118 4.5164 6.6118H9.5055C10.2927 6.6118 10.9309 5.9736 10.9309 5.1863Z" fill="#000000" stroke-width="1"></path><path d="M8.7927 17.3027C9.3606 17.307 9.9058 17.0807 10.3037 16.6755L19.5264 7.4813C19.6615 7.3373 19.8902 7.3373 20.0253 7.4813L22.5484 9.9901C22.677 10.1286 22.8582 10.2062 23.0473 10.2039C23.1364 10.2241 23.229 10.2241 23.3181 10.2039C23.5843 10.0946 23.7586 9.8359 23.76 9.5482V0.9955C23.76 0.6019 23.4409 0.2828 23.0473 0.2828H14.4945C14.2068 0.2842 13.9482 0.4585 13.8388 0.7246C13.7239 0.9887 13.7866 1.2964 13.9956 1.4944L16.5044 4.0032C16.566 4.0748 16.6012 4.1654 16.6042 4.2598C16.5991 4.3537 16.5642 4.4436 16.5044 4.5164L7.2817 13.6535C6.44 14.485 6.44 15.844 7.2817 16.6755C7.6796 17.0806 8.2249 17.307 8.7927 17.3027Z" fill="#000000" stroke-width="1"></path></g></svg>