<svg width="112" height="111" viewBox="0 0 112 111" fill="none" xmlns="http://www.w3.org/2000/svg">
<path d="M4.29105 22.317C1.68923 19.9013 0.395325 16.9111 0.395325 13.3533C0.395325 9.79554 1.69615 6.6738 4.29105 4.25119C6.89286 1.83549 10.242 0.624191 14.3454 0.624191C18.4488 0.624191 21.6665 1.83549 24.2614 4.25119C26.8633 6.66688 28.1572 9.70555 28.1572 13.3533C28.1572 17.0011 26.8563 19.9013 24.2614 22.317C21.6596 24.7327 18.3589 25.944 14.3454 25.944C10.332 25.944 6.89286 24.7327 4.29105 22.317ZM25.9706 36.1744V110.237H2.57497V36.1744H25.9706Z" fill="black"/>
<path d="M103.852 43.4906C108.952 49.028 111.498 56.6282 111.498 66.3048V108.929H89.2792V69.3088C89.2792 64.429 88.0129 60.6358 85.4872 57.9363C82.9615 55.2368 79.557 53.8802 75.2945 53.8802C71.0319 53.8802 67.6273 55.2299 65.1016 57.9363C62.5759 60.6358 61.3096 64.429 61.3096 69.3088V108.929H38.959V35.9667H61.3096V45.6433C63.5723 42.4177 66.6241 39.8706 70.4576 37.9948C74.2911 36.119 78.6021 35.1845 83.3974 35.1845C91.9364 35.1845 98.7591 37.9532 103.852 43.4837V43.4906Z" fill="black"/>
</svg>
