<?xml version="1.0" encoding="UTF-8"?>
<svg id="Layer_2" data-name="Layer 2" xmlns="http://www.w3.org/2000/svg" viewBox="0 0 601.24 241">
  <defs>
    <style>
      .cls-1 {
        fill: #bbbdbf;
      }

      .cls-1, .cls-2 {
        stroke-width: 0px;
      }

      .cls-2, .cls-3 {
        fill: #fff;
      }

      .cls-4 {
        stroke: #fff;
      }

      .cls-4, .cls-3 {
        stroke-miterlimit: 10;
      }

      .cls-3 {
        stroke: #000;
      }
    </style>
  </defs>
  <g id="Layer_1-2" data-name="Layer 1">
    <g>
      <path class="cls-4" d="M439.43.52h122.7l38.37,32.13-37.07,36.43h-124c-2.37,0-4.38.83-6.02,2.49-1.64,1.66-2.46,3.69-2.46,6.09s.82,4.43,2.46,6.09c1.64,1.66,3.65,2.49,6.02,2.49h84.78c21.02,0,39,7.54,53.92,22.63,14.92,15.08,22.38,33.25,22.38,54.51s-7.46,39.43-22.38,54.51c-14.92,15.08-32.89,22.63-53.92,22.63h-124.73l-36.35-34.03,33.75-34.53h127.33c2.37,0,4.38-.83,6.02-2.49,1.64-1.65,2.46-3.69,2.46-6.09s-.82-4.43-2.46-6.09c-1.64-1.65-3.65-2.49-6.02-2.49h-84.78c-21.02,0-39-7.54-53.92-22.63-14.92-15.08-22.38-33.25-22.38-54.51s7.46-39.43,22.38-54.51c14.92-15.08,32.89-22.63,53.92-22.63Z"/>
      <g>
        <path class="cls-4" d="M421.83,118.36c0-3.22-.19-6.39-.43-9.51l-.14-1.32c-.29-2.97-.68-5.85-1.16-8.73l-.48-2.73c-.58-3.02-1.3-6.05-2.17-8.97-.19-.93-.48-1.8-.77-2.68-.29-1.02-.63-2.05-.96-3.07-.14-.44-.29-.88-.43-1.32-5.69-16.33-15.1-31.11-28.17-44.37C363.95,12.27,335.93.51,303.18.51h-118.69v239.99h118.69c32.75,0,60.77-11.7,83.92-35.11,11.33-11.51,19.87-24.14,25.66-37.93l.58-1.37c1.11-2.78,2.12-5.56,2.99-8.43.34-.88.63-1.8.87-2.73,1.16-4,2.12-8.09,2.8-12.29l.48-2.73c.34-2.19.58-4.39.82-6.63.05-.88.14-1.76.19-2.68.24-3.12.39-6.34.39-9.56v-.54c0-.73,0-1.46-.05-2.15Z"/>
        <g>
          <polygon class="cls-1" points="421.25 113.86 377.89 113.86 343.26 78.8 253.03 78.8 253.03 80.17 342.68 80.17 377.36 115.17 421.39 115.17 421.25 113.86"/>
          <polygon class="cls-1" points="378.11 138.74 349.47 167.69 276.57 167.69 269.52 174.83 250.33 174.83 233.02 157.33 200.01 157.33 200.01 155.98 233.57 155.98 250.88 173.47 268.96 173.47 276.02 166.34 348.92 166.34 377.16 137.79 378.11 138.74"/>
          <polygon class="cls-1" points="412.76 173.78 403.16 173.78 370.75 206.5 351.46 206.5 351.46 205.18 370.22 205.18 402.58 172.42 413.34 172.42 412.76 173.78"/>
          <polygon class="cls-1" points="363.23 172.02 356.36 178.97 327.28 178.97 305.48 201 284.71 201 284.71 199.65 304.93 199.65 326.72 177.61 355.81 177.61 362.28 171.07 363.23 172.02"/>
          <polygon class="cls-1" points="415.27 86.36 391.39 86.36 348.09 42.57 298.65 42.57 284.23 27.95 283.27 28.92 298.12 43.89 347.55 43.89 390.82 87.68 415.7 87.68 415.27 86.36"/>
          <g>
            <path class="cls-2" d="M380.11,146.23l-23.68,23.94h-63.42l-19.1,19.31h-40.17c-.63-2.54-2.85-4.44-5.55-4.44-3.13,0-5.69,2.58-5.69,5.8s2.56,5.75,5.69,5.75c2.7,0,4.92-1.9,5.55-4.44h41.28l19.1-19.26h63.42l23.68-23.94h38.78l.48-2.73h-40.37ZM228.19,195.23c-2.41,0-4.34-2-4.34-4.39s1.93-4.44,4.34-4.44,4.39,2,4.39,4.44-1.98,4.39-4.39,4.39Z"/>
            <path class="cls-2" d="M350.3,136.92l-30.09-30.47h-8.87c-.63-2.49-2.85-4.39-5.55-4.39-3.13,0-5.69,2.58-5.69,5.75s2.56,5.75,5.69,5.75c2.7,0,4.92-1.85,5.55-4.39h7.76l27.44,27.74h-80.83c-.58-2.15-2.56-3.75-4.87-3.75-2.75,0-5.02,2.29-5.02,5.12s2.27,5.07,5.02,5.07c2.32,0,4.29-1.61,4.87-3.75h156.16v-2.68h-71.57ZM305.79,112.25c-2.41,0-4.34-2-4.34-4.44s1.93-4.39,4.34-4.39,4.39,1.95,4.39,4.39-1.98,4.44-4.39,4.44Z"/>
            <path class="cls-2" d="M420.09,105.13h-44.8l-33.08-33.5h-27.1c-.63,2.15-2.56,3.75-4.87,3.75-2.8,0-5.02-2.29-5.02-5.12s2.22-5.07,5.02-5.07c2.31,0,4.24,1.56,4.87,3.71h28.21l33.08,33.5h43.21l.48,2.73Z"/>
            <path class="cls-2" d="M273.31,90.74l-28.28,28.6h-39.96c-.59-2.15-2.53-3.73-4.85-3.73-2.78,0-5.03,2.28-5.03,5.09,0,2.81,2.25,5.09,5.03,5.09,2.31,0,4.26-1.58,4.85-3.73h41.07s28.28-28.6,28.28-28.6h61.3s33.55,33.92,33.55,33.92h52.58s0-2.71,0-2.71h-51.47s-33.55-33.92-33.55-33.92h-63.52Z"/>
            <path class="cls-2" d="M417.2,161.25c-.24.93-.53,1.85-.87,2.73h-24.64l-23.49,23.74h-17.89l-18.62,18.82c1.11,1.95.82,4.44-.82,6.09-1.93,2-5.16,2-7.09,0-1.98-2-1.98-5.22,0-7.22,1.64-1.61,4.1-1.9,6.03-.78l19.39-19.65h17.89l23.49-23.75h26.62Z"/>
            <path class="cls-2" d="M416.67,90.75h-35.01l-37.23-37.59h-69.98l-21.61-21.84h-34.77c-.58-2.54-2.85-4.44-5.55-4.44-3.13,0-5.69,2.63-5.69,5.8s2.56,5.75,5.69,5.75c2.7,0,4.97-1.9,5.55-4.44h33.66l21.61,21.84h69.98l37.23,37.59h36.89c-.19-.93-.48-1.8-.77-2.68ZM212.52,37.06c-2.36,0-4.34-1.95-4.34-4.39s1.98-4.44,4.34-4.44,4.39,2,4.39,4.44-1.98,4.39-4.39,4.39Z"/>
          </g>
        </g>
      </g>
      <g>
        <path class="cls-4" d="M203.15,35.65C179.96,12.25,151.98.5,119.19.5H.5v239.99h118.69c32.8,0,60.77-11.7,83.97-35.11,23.15-23.45,34.72-51.73,34.72-84.89s-11.57-61.39-34.72-84.84Z"/>
        <g>
          <path class="cls-3" d="M247.3,120.6c.44-.03.87-.07,1.31-.1-.44-.03-.87-.06-1.31-.1,0,.03,0,.06,0,.1s0,.06,0,.1Z"/>
          <path class="cls-3" d="M98.02,125.08h116.13c-97.9,19.55-144.59,86.98-144.59,86.98C47.38,165.69,15.16,163.84.5,165.79v-90.59c14.66,1.95,46.88.1,69.06-46.22,0,0,46.68,67.43,144.59,86.93h-116.13c-.39,0-.72.05-1.11.15-1.78-5.07-6.61-8.73-12.25-8.73-7.23,0-13.07,5.9-13.07,13.16s5.84,13.21,13.07,13.21c5.64,0,10.47-3.66,12.25-8.78.39.1.72.15,1.11.15Z"/>
        </g>
      </g>
    </g>
  </g>
</svg>