<svg width="24" height="24" viewBox="0 0 24 24" fill="none" xmlns="http://www.w3.org/2000/svg">
<path d="M18.8569 15.1606C18.9414 15.1121 19.0117 15.0422 19.0606 14.9579C19.1096 14.8737 19.1355 14.7781 19.1358 14.6806L19.1458 11.4656C19.1461 11.3682 19.172 11.2725 19.221 11.1883C19.2699 11.104 19.3402 11.0341 19.4247 10.9856L21.1675 9.9845C21.2519 9.936 21.3477 9.91055 21.4451 9.91071C21.5425 9.91088 21.6381 9.93665 21.7224 9.98544C21.8067 10.0342 21.8767 10.1043 21.9254 10.1887C21.974 10.2731 21.9997 10.3688 21.9997 10.4662V16.3112C21.9997 16.4089 21.9739 16.5049 21.9249 16.5894C21.8759 16.674 21.8055 16.7442 21.7208 16.7928L15.1436 20.5706C15.0596 20.6188 14.9644 20.6443 14.8675 20.6444C14.7707 20.6445 14.6755 20.6192 14.5914 20.5712L9.42969 17.6189C9.34466 17.5704 9.27398 17.5002 9.22481 17.4155C9.17564 17.3308 9.14972 17.2347 9.14969 17.1367V14.1895C9.14969 14.1862 9.15358 14.1839 9.15691 14.1856C9.15969 14.1873 9.16358 14.1856 9.16358 14.1817V14.1784C9.16358 14.1762 9.16469 14.1739 9.16691 14.1728L13.418 11.7306C13.4219 11.7284 13.4202 11.7223 13.4158 11.7223C13.4146 11.7223 13.4135 11.7218 13.4127 11.721C13.4118 11.7201 13.4114 11.719 13.4114 11.7178L13.4197 8.82839C13.4201 8.73069 13.3947 8.6346 13.3461 8.54984C13.2975 8.46508 13.2274 8.39463 13.1429 8.34561C13.0583 8.29659 12.9624 8.27072 12.8647 8.27063C12.767 8.27053 12.671 8.2962 12.5864 8.34506L9.42691 10.1656C9.34259 10.2142 9.24699 10.2397 9.14969 10.2397C9.05239 10.2397 8.95679 10.2142 8.87247 10.1656L5.70302 8.34061C5.61858 8.29199 5.52284 8.26644 5.4254 8.2665C5.32797 8.26657 5.23226 8.29227 5.14789 8.34101C5.06352 8.38975 4.99345 8.45983 4.94472 8.5442C4.89599 8.62858 4.8703 8.72429 4.87024 8.82173V14.0439C4.87031 14.1413 4.8448 14.2369 4.79628 14.3213C4.74775 14.4057 4.6779 14.4758 4.59374 14.5247C4.50957 14.5736 4.41404 14.5995 4.31671 14.5999C4.21937 14.6002 4.12365 14.575 4.03913 14.5267L2.28024 13.5212C2.19505 13.4725 2.12426 13.4021 2.07508 13.3173C2.0259 13.2324 2.00008 13.136 2.00024 13.0378L2.0158 3.91006C2.01601 3.81275 2.04178 3.7172 2.09052 3.63298C2.13927 3.54876 2.20928 3.47882 2.29355 3.43016C2.37782 3.3815 2.47339 3.35583 2.5707 3.35571C2.66801 3.3556 2.76364 3.38104 2.84802 3.4295L8.87302 6.89006C8.95721 6.93841 9.0526 6.96385 9.14969 6.96385C9.24678 6.96385 9.34217 6.93841 9.42636 6.89006L15.4497 3.4295C15.5342 3.38097 15.63 3.35553 15.7274 3.35571C15.8249 3.3559 15.9206 3.38172 16.0049 3.43058C16.0892 3.47944 16.1592 3.54961 16.2078 3.63407C16.2564 3.71852 16.282 3.81428 16.2819 3.91173V13.0417C16.282 13.1394 16.2562 13.2353 16.2074 13.3199C16.1585 13.4045 16.0882 13.4747 16.0036 13.5234L12.8491 15.3401C12.7644 15.3889 12.6941 15.4592 12.6452 15.544C12.5964 15.6287 12.5708 15.7248 12.571 15.8226C12.5713 15.9204 12.5973 16.0165 12.6465 16.101C12.6957 16.1855 12.7664 16.2555 12.8514 16.3039L14.5914 17.2945C14.6754 17.3424 14.7706 17.3675 14.8673 17.3673C14.9641 17.3671 15.0591 17.3416 15.143 17.2934L18.8569 15.1606ZM19.2219 6.97062C19.222 7.06886 19.2481 7.16533 19.2976 7.25019C19.3472 7.33505 19.4183 7.40525 19.5038 7.45365C19.5893 7.50205 19.6861 7.52691 19.7843 7.52569C19.8826 7.52447 19.9787 7.49723 20.063 7.44673L21.7297 6.44673C21.812 6.39743 21.8801 6.32766 21.9274 6.24423C21.9747 6.16079 21.9996 6.06653 21.9997 5.97062V3.93284C21.9995 3.83464 21.9733 3.73824 21.9238 3.65346C21.8742 3.56868 21.803 3.49855 21.7176 3.45022C21.6321 3.40189 21.5353 3.37708 21.4371 3.37832C21.3389 3.37956 21.2428 3.40681 21.1586 3.45728L19.4919 4.45728C19.4096 4.50658 19.3415 4.57635 19.2942 4.65978C19.2469 4.74321 19.222 4.83748 19.2219 4.93339V6.97117V6.97062Z" fill="black"/>
</svg>
