<svg width="520" height="520" viewBox="0 0 520 520" fill="none" xmlns="http://www.w3.org/2000/svg">
<g clip-path="url(#clip0_327_413)" filter="url(#filter0_d_327_413)">
<path d="M4 185.295C4 120.436 4 88.0061 16.6225 63.2331C27.7255 41.4421 45.4421 23.7255 67.2331 12.6225C92.0061 0 124.436 0 189.295 0H330.705C395.564 0 427.994 0 452.767 12.6225C474.558 23.7255 492.274 41.4421 503.378 63.2331C516 88.0061 516 120.436 516 185.295V326.705C516 391.564 516 423.994 503.378 448.767C492.274 470.558 474.558 488.274 452.767 499.378C427.994 512 395.564 512 330.705 512H189.295C124.436 512 92.0061 512 67.2331 499.378C45.4421 488.274 27.7255 470.558 16.6225 448.767C4 423.994 4 391.564 4 326.705V185.295Z" fill="black"/>
<path d="M113.714 375.154V150.005C113.714 148.474 114.354 147.599 115.848 147.599C137.893 147.599 159.929 146.286 181.981 146.286C217.763 146.286 256.507 158.521 270.088 195.954C273.288 205.144 274.994 214.552 274.994 224.399C274.994 243.216 270.728 258.751 262.194 271.004C238.357 305.231 197.042 304.699 160.008 304.699V374.935C160.297 377.015 158.525 377.999 156.808 377.999H116.274C114.568 377.999 113.714 377.123 113.714 375.154ZM160.221 189.828V263.346C174.905 264.421 190.272 264.538 204.381 259.845C219.957 255.352 228.488 241.868 228.488 225.711C228.921 211.944 221.419 198.734 208.648 193.766C194.708 187.97 175.268 187.623 160.221 189.828Z" fill="white"/>
<path d="M408.053 248.821C401.598 245.419 394.724 242.93 387.617 241.423C378.484 239.274 342.465 231.748 342.451 250.582C342.771 261.097 359.462 266.248 366.837 269.252C392.726 278.141 422.024 294.029 421.448 325.968C422.24 365.729 383.716 381.624 350.694 381.628C333.503 381.806 315.594 379.143 299.861 371.764C298.359 370.969 297.392 369.268 297.456 367.536V329.491C297.287 327.966 298.924 326.632 300.204 327.73C315.62 337.052 333.891 341.578 351.724 341.82C359.596 341.82 375.199 341.057 375.08 329.491C375.08 318.391 356.416 313.288 348.976 310.468C338.192 306.618 327.966 301.285 318.579 294.616C305.462 285.259 297.233 270.257 297.457 253.752C297.38 216.314 332.841 199.51 364.776 199.502C379.706 199.379 395.738 200.485 409.635 206.548C411.634 207.136 412.048 209.241 412.04 211.127V246.707C412.167 248.915 409.714 249.667 408.053 248.821Z" fill="white"/>
</g>
<defs>
<filter id="filter0_d_327_413" x="0" y="0" width="520" height="520" filterUnits="userSpaceOnUse" color-interpolation-filters="sRGB">
<feFlood flood-opacity="0" result="BackgroundImageFix"/>
<feColorMatrix in="SourceAlpha" type="matrix" values="0 0 0 0 0 0 0 0 0 0 0 0 0 0 0 0 0 0 127 0" result="hardAlpha"/>
<feOffset dy="4"/>
<feGaussianBlur stdDeviation="2"/>
<feComposite in2="hardAlpha" operator="out"/>
<feColorMatrix type="matrix" values="0 0 0 0 0 0 0 0 0 0 0 0 0 0 0 0 0 0 0.25 0"/>
<feBlend mode="normal" in2="BackgroundImageFix" result="effect1_dropShadow_327_413"/>
<feBlend mode="normal" in="SourceGraphic" in2="effect1_dropShadow_327_413" result="shape"/>
</filter>
<clipPath id="clip0_327_413">
<rect width="512" height="512" fill="white" transform="translate(4)"/>
</clipPath>
</defs>
</svg>
