<svg width="520" height="528" viewBox="0 0 520 528" fill="none" xmlns="http://www.w3.org/2000/svg">
<g clip-path="url(#clip0_340_641)" filter="url(#filter0_d_340_641)">
<path d="M513.906 296.506C531.823 156.243 432.769 28.0105 292.762 10.0938C152.755 -7.82301 24.0105 91.2312 6.09376 231.238C-11.823 371.245 87.2312 499.734 227.238 517.906C367.501 535.823 495.734 436.769 513.906 296.506Z" fill="#242424"/>
<path d="M352.399 172.369L244.387 280.381L213.928 249.923C320.149 143.702 330.643 152.916 352.399 172.369Z" fill="white"/>
<path d="M244.387 282.941C243.619 282.941 243.107 282.685 242.595 282.173L211.881 251.714C210.857 250.69 210.857 249.155 211.881 248.131C319.893 140.118 331.155 150.357 353.935 170.833C354.447 171.345 354.703 171.857 354.703 172.625C354.703 173.392 354.447 173.904 353.935 174.416L245.923 282.173C245.667 282.685 244.899 282.941 244.387 282.941ZM217.512 249.923L244.387 276.798L348.56 172.625C329.619 155.732 316.822 150.612 217.512 249.923Z" fill="#242424"/>
<path d="M275.357 311.352L245.922 281.917L353.935 173.904C382.858 203.083 339.602 250.434 275.357 311.352Z" fill="white"/>
<path d="M275.357 313.911C274.589 313.911 274.077 313.655 273.565 313.143L244.131 283.709C243.619 283.197 243.619 282.685 243.619 281.917C243.619 281.149 243.875 280.637 244.387 280.125L352.399 172.113C353.423 171.089 354.959 171.089 355.982 172.113C362.637 178.256 366.221 186.958 365.965 195.916C365.453 224.327 333.203 260.417 277.405 313.143C276.637 313.655 275.869 313.911 275.357 313.911ZM249.506 281.917C265.887 298.554 272.797 305.209 275.357 307.768C318.357 266.816 360.078 224.839 360.334 195.916C360.59 189.262 358.03 182.607 353.679 177.488L249.506 281.917Z" fill="#242424"/>
<path d="M214.44 250.69L236.196 272.447C236.708 272.958 236.708 273.47 236.196 273.982C235.94 274.238 235.94 274.238 235.684 274.238L190.636 283.964C188.333 284.22 186.285 282.685 185.773 280.381C185.517 279.101 186.029 277.822 186.797 277.054L212.904 250.946C213.416 250.435 214.184 250.179 214.44 250.69Z" fill="white"/>
<path d="M189.869 286.524C186.029 286.524 183.214 283.453 183.214 279.613C183.214 277.822 183.982 276.03 185.261 274.75L211.369 248.643C212.905 247.363 214.952 247.363 216.488 248.643L238.244 270.399C239.78 271.679 239.78 273.982 238.244 275.518C237.732 276.03 237.22 276.286 236.452 276.542L191.404 286.268C190.892 286.268 190.381 286.524 189.869 286.524ZM213.672 253.506L188.589 278.589C188.077 279.101 187.821 279.869 188.333 280.637C188.589 281.405 189.357 281.661 190.125 281.405L232.357 272.191L213.672 253.506Z" fill="#242424"/>
<path d="M409.477 112.475C393.096 96.6062 366.733 97.1181 350.863 113.755C334.994 130.392 335.506 156.499 352.143 172.369C365.709 185.422 386.185 187.726 402.31 178L373.131 148.821L409.477 112.475Z" fill="white"/>
<path d="M380.81 186.446C356.495 186.446 336.786 166.738 336.786 142.422C336.786 118.106 356.495 98.3979 380.81 98.3979C392.072 98.3979 403.078 102.749 411.269 110.684C411.781 111.196 412.037 111.707 412.037 112.475C412.037 113.243 411.781 113.755 411.269 114.267L376.715 148.821L403.846 175.952C404.87 176.976 404.87 178.511 403.846 179.535C403.59 179.791 403.59 179.791 403.334 180.047C396.679 184.142 388.745 186.446 380.81 186.446ZM380.81 103.773C359.31 103.773 341.905 121.178 342.161 142.678C342.161 164.178 359.566 181.583 381.066 181.327C386.953 181.327 392.84 180.047 398.215 177.232L371.34 150.612C370.828 150.101 370.572 149.589 370.572 148.821C370.572 148.053 370.828 147.541 371.34 147.029L405.638 112.731C398.727 106.844 390.025 103.773 380.81 103.773Z" fill="#242424"/>
<path d="M410.245 113.243L409.733 112.731L373.131 148.821L402.054 177.744C404.87 175.952 407.685 173.904 409.989 171.601C426.37 155.476 426.37 129.368 410.245 113.243Z" fill="white"/>
<path d="M402.31 180.559C401.542 180.559 401.03 180.303 400.518 179.791L371.34 150.612C370.828 150.101 370.572 149.589 370.572 148.821C370.572 148.053 370.828 147.541 371.34 147.029L407.685 110.684C408.709 109.66 410.245 109.66 411.268 110.684L412.036 111.196C429.185 128.344 429.185 155.988 412.292 173.392C409.733 175.952 406.917 178.256 403.846 180.047C403.078 180.303 402.566 180.559 402.31 180.559ZM376.715 148.821L402.566 174.672C404.614 173.392 406.661 171.601 408.197 170.065C422.786 155.476 423.554 131.672 409.477 116.315L376.715 148.821Z" fill="#242424"/>
<path d="M356.75 176.976C350.608 170.833 340.625 170.833 334.482 176.976L237.988 273.47L254.113 289.595L356.239 200.012C362.893 194.381 363.405 184.398 357.774 177.744C357.262 177.488 357.006 177.232 356.75 176.976Z" fill="white"/>
<path d="M253.857 292.155C253.089 292.155 252.577 291.899 252.065 291.387L235.94 275.262C234.916 274.238 234.916 272.702 235.94 271.679L332.435 175.184C339.602 168.017 351.12 168.017 358.286 175.184C365.453 182.351 365.453 193.869 358.286 201.035C358.03 201.291 357.774 201.547 357.518 201.803L255.393 291.387C255.137 291.899 254.625 292.155 253.857 292.155ZM241.571 273.47L254.113 286.012L354.447 197.964C360.078 193.357 360.59 184.91 355.983 179.279C351.375 173.648 342.929 173.136 337.298 177.744C337.042 178 336.786 178.256 336.274 178.511L241.571 273.47Z" fill="#242424"/>
<path d="M164.017 383.275C162.993 383.786 162.481 384.81 162.737 385.834L167.088 404.263C168.112 406.822 166.577 409.894 163.761 410.662C161.713 411.43 159.41 410.662 158.13 409.126L129.975 381.227L221.863 289.34L253.601 289.851L275.101 311.352C269.982 315.703 239.011 345.649 164.017 383.275Z" fill="white"/>
<path d="M161.97 413.221C159.922 413.221 157.874 412.453 156.595 410.918L128.696 383.019C128.184 382.507 127.928 381.995 127.928 381.227C127.928 380.459 128.184 379.947 128.696 379.435L220.583 287.548C221.095 287.036 221.863 286.78 222.375 286.78L254.113 287.292C254.881 287.292 255.393 287.548 255.905 288.06L277.405 309.56C277.917 310.072 278.173 310.84 278.173 311.608C278.173 312.375 277.917 312.887 277.149 313.399L275.357 314.935C248.226 338.739 211.369 362.542 165.553 385.322L169.904 403.495C170.672 406.822 169.136 410.406 166.065 412.197C164.529 412.965 163.249 413.221 161.97 413.221ZM133.815 381.227L160.178 407.334C160.946 408.614 162.482 409.126 163.761 408.358C165.041 407.59 165.553 406.054 164.785 404.775L160.434 386.346C159.922 384.042 160.946 381.995 162.993 380.971C208.297 358.191 244.899 334.643 271.774 311.352L252.833 292.411L223.399 291.899L133.815 381.227Z" fill="#242424"/>
<path d="M108.219 403.239L130.231 381.227L162.993 413.989L110.779 410.406C108.475 410.15 106.939 408.102 107.195 405.799C107.195 404.775 107.451 403.751 108.219 403.239Z" fill="white"/>
<path d="M162.993 416.293L110.523 412.709C106.683 412.453 104.124 409.126 104.38 405.287C104.636 403.751 105.148 402.215 106.428 401.191L128.44 379.179C129.463 378.156 130.999 378.156 132.023 379.179L164.785 411.941C165.553 412.709 165.809 413.733 165.297 414.757C164.785 415.781 164.017 416.293 162.993 416.293ZM130.231 384.81L110.011 405.031C109.243 405.543 109.243 406.822 110.011 407.334C110.267 407.59 110.523 407.846 111.035 407.846L156.339 410.918L130.231 384.81Z" fill="#242424"/>
<path d="M212.904 301.113C211.369 301.113 210.345 299.834 210.345 298.554C210.345 297.786 210.601 297.274 211.113 296.762L235.94 271.935C236.964 270.911 238.5 270.911 239.523 271.935L255.649 288.06C256.416 288.828 256.672 289.595 256.416 290.619C256.16 291.387 255.393 292.155 254.369 292.411L213.416 301.113C213.16 301.113 212.904 301.113 212.904 301.113ZM237.732 277.31L220.839 294.203L248.482 288.316L237.732 277.31Z" fill="#242424"/>
<path d="M253.601 289.851L225.446 295.994C223.398 296.506 221.351 295.226 220.839 293.179C220.583 291.899 220.839 290.619 221.863 289.595L237.476 273.982L253.601 289.851Z" fill="white"/>
<path d="M224.934 298.554C221.351 298.554 218.535 295.738 218.535 292.155C218.535 290.363 219.303 288.828 220.327 287.548L235.94 271.935C236.964 270.911 238.5 270.911 239.523 271.935L255.648 288.06C256.416 288.828 256.672 289.595 256.416 290.619C256.16 291.387 255.393 292.155 254.369 292.411L226.214 298.554C225.702 298.554 225.19 298.554 224.934 298.554ZM237.732 277.31L223.91 291.131C223.398 291.643 223.398 292.155 223.654 292.667C223.91 293.179 224.422 293.435 225.19 293.435L248.738 288.316L237.732 277.31Z" fill="#242424"/>
<path d="M410.501 137.815C409.989 136.279 408.197 135.511 406.661 136.023C405.126 136.535 404.358 138.327 404.87 139.862C404.87 140.118 405.126 140.374 405.126 140.63C406.662 143.702 406.15 147.541 404.102 150.357C403.078 151.636 403.334 153.428 404.358 154.452C405.638 155.476 407.429 155.22 408.453 153.94C412.292 149.077 413.06 142.934 410.501 137.815Z" fill="#242424"/>
</g>
<defs>
<filter id="filter0_d_340_641" x="0" y="0" width="520" height="536" filterUnits="userSpaceOnUse" color-interpolation-filters="sRGB">
<feFlood flood-opacity="0" result="BackgroundImageFix"/>
<feColorMatrix in="SourceAlpha" type="matrix" values="0 0 0 0 0 0 0 0 0 0 0 0 0 0 0 0 0 0 127 0" result="hardAlpha"/>
<feOffset dy="4"/>
<feGaussianBlur stdDeviation="2"/>
<feComposite in2="hardAlpha" operator="out"/>
<feColorMatrix type="matrix" values="0 0 0 0 0 0 0 0 0 0 0 0 0 0 0 0 0 0 0.25 0"/>
<feBlend mode="normal" in2="BackgroundImageFix" result="effect1_dropShadow_340_641"/>
<feBlend mode="normal" in="SourceGraphic" in2="effect1_dropShadow_340_641" result="shape"/>
</filter>
<clipPath id="clip0_340_641">
<rect width="512" height="528" fill="white" transform="translate(4)"/>
</clipPath>
</defs>
</svg>
