<svg width="24" height="24" viewBox="0 0 24 24" fill="none" xmlns="http://www.w3.org/2000/svg">
<path d="M18.4435 8.87063C18.2307 8.79759 18.0162 8.72976 17.8 8.66716C17.8359 8.52107 17.8693 8.3744 17.9 8.22716C18.387 5.86194 18.0687 3.95585 16.98 3.32803C15.9365 2.72629 14.2304 3.35411 12.507 4.85411C12.3371 5.00194 12.1713 5.15411 12.0096 5.31063C11.9012 5.20629 11.791 5.10426 11.6791 5.00455C9.87217 3.40194 8.06087 2.72716 6.97391 3.35498C5.93304 3.95846 5.62435 5.75063 6.06087 7.99237C6.10551 8.2144 6.15478 8.43527 6.2087 8.65498C5.95391 8.72803 5.70609 8.80542 5.46957 8.88803C3.35217 9.62716 2 10.7837 2 11.9837C2 13.2228 3.45217 14.4663 5.65739 15.2185C5.83594 15.2799 6.01623 15.3367 6.19826 15.3889C6.13913 15.6248 6.08696 15.8625 6.04174 16.1019C5.62261 18.3045 5.94956 20.0541 6.98956 20.6541C8.06261 21.2732 9.86435 20.6367 11.62 19.1028C11.7591 18.9822 11.8983 18.8541 12.0374 18.7185C12.2125 18.8883 12.3922 19.053 12.5765 19.2124C14.2774 20.675 15.9557 21.2645 16.9939 20.6645C18.0678 20.0428 18.4165 18.1637 17.9635 15.8776C17.9287 15.7037 17.8887 15.5257 17.8435 15.3437C17.9699 15.3066 18.0939 15.268 18.2157 15.228C20.5087 14.468 22 13.2393 22 11.9837C22 10.7785 20.6043 9.61411 18.4435 8.87063ZM13.0696 5.49933C14.5461 4.21411 15.9261 3.70803 16.5565 4.06976C17.2261 4.45585 17.4852 6.01324 17.0643 8.05585C17.0371 8.18919 17.0072 8.32165 16.9748 8.45324C16.0935 8.25348 15.1999 8.1123 14.3 8.03063C13.7843 7.28993 13.2193 6.58485 12.6087 5.9202C12.7583 5.77643 12.9113 5.63614 13.0678 5.49933H13.0696ZM7.90435 13.0072C8.0858 13.3573 8.27507 13.7022 8.47217 14.0419C8.67333 14.3898 8.88261 14.7327 9.1 15.0706C8.48085 15.0037 7.86555 14.905 7.25652 14.775C7.43391 14.2037 7.6513 13.6098 7.90522 13.008L7.90435 13.0072ZM7.90435 10.9985C7.65565 10.4089 7.44348 9.8289 7.26957 9.26803C7.83913 9.1402 8.44783 9.03585 9.08174 8.95672C8.86957 9.28716 8.66522 9.62339 8.4687 9.96542C8.27159 10.3051 8.08319 10.6495 7.90348 10.9985H7.90435ZM8.35826 12.0037C8.62145 11.4559 8.90551 10.9185 9.21043 10.3915C9.51304 9.86397 9.83594 9.34947 10.1791 8.84803C10.7739 8.80281 11.3835 8.77846 12 8.77846C12.6191 8.77846 13.2296 8.80281 13.8243 8.84803C14.1635 9.34947 14.4846 9.86252 14.7878 10.3872C15.0928 10.9124 15.3803 11.4472 15.6504 11.9915C15.3838 12.5411 15.0974 13.0808 14.7913 13.6106C14.4881 14.137 14.1681 14.653 13.8313 15.1585C13.2383 15.2019 12.6252 15.2228 12 15.2228C11.3774 15.2228 10.7722 15.2037 10.1896 15.1654C9.84406 14.6611 9.51826 14.1443 9.21217 13.615C8.90725 13.0874 8.62261 12.5501 8.35826 12.0028V12.0037ZM15.5322 14.0385C15.7328 13.6889 15.9258 13.3353 16.1113 12.9776C16.3654 13.5522 16.5895 14.1397 16.7826 14.7376C16.1668 14.8758 15.5442 14.9817 14.9174 15.055C15.1284 14.7199 15.333 14.3808 15.5313 14.0376L15.5322 14.0385ZM16.1026 10.9993C15.9183 10.6492 15.727 10.3025 15.5287 9.95933C15.3328 9.62194 15.1299 9.28861 14.92 8.95933C15.5574 9.0402 16.1687 9.14716 16.7435 9.27846C16.5589 9.86278 16.345 10.4374 16.1026 11.0002V10.9993ZM12.0087 6.53324C12.4248 6.98673 12.8178 7.46096 13.1861 7.95411C12.3988 7.91643 11.611 7.91643 10.8226 7.95411C11.2113 7.44107 11.6096 6.96455 12.0096 6.53324H12.0087ZM7.40348 4.09411C8.07304 3.70716 9.5513 4.25933 11.1113 5.64455C11.2113 5.73324 11.3113 5.82542 11.4113 5.92107C10.7972 6.58582 10.2278 7.29055 9.70696 8.03063C8.80966 8.11119 7.91852 8.24974 7.03913 8.44542C6.98812 8.24136 6.94232 8.03556 6.90174 7.82803V7.82976C6.52522 5.90803 6.77478 4.45933 7.40348 4.09585V4.09411ZM6.42609 14.5663C6.26087 14.5188 6.09681 14.4674 5.93391 14.4124C5.08644 14.1458 4.29528 13.7254 3.6 13.1724C3.40103 13.0356 3.23224 12.8595 3.10406 12.6549C2.97588 12.4502 2.89104 12.2215 2.85478 11.9828C2.85478 11.255 3.94 10.3263 5.75043 9.69585C5.97826 9.61585 6.20783 9.54339 6.43913 9.47846C6.70776 10.3407 7.03311 11.1843 7.41304 12.0037C7.0283 12.8349 6.69889 13.6907 6.42696 14.5654L6.42609 14.5663ZM11.0574 18.4619C10.4032 19.062 9.64419 19.5366 8.81826 19.8619C8.6007 19.9662 8.36407 20.0248 8.12298 20.0341C7.88188 20.0434 7.64145 20.0031 7.41652 19.9159C6.78609 19.5506 6.52348 18.1472 6.88087 16.2637C6.92377 16.0405 6.97246 15.819 7.02696 15.5993C7.91566 15.79 8.81628 15.9202 9.72261 15.9889C10.2477 16.733 10.8211 17.4417 11.4391 18.1106C11.3151 18.2306 11.1881 18.3474 11.0583 18.4611L11.0574 18.4619ZM12.033 17.495C11.6278 17.0585 11.2243 16.575 10.8296 16.055C11.2122 16.0701 11.6023 16.0776 12 16.0776C12.4075 16.0776 12.8099 16.0689 13.207 16.0515C12.8406 16.5524 12.4487 17.0342 12.033 17.495ZM17.2217 18.6837C17.2033 18.9244 17.1357 19.1589 17.0231 19.3724C16.9105 19.586 16.7552 19.7742 16.567 19.9254C15.9365 20.2906 14.5887 19.8159 13.1348 18.5654C12.9684 18.4228 12.8009 18.2703 12.6322 18.108C13.2383 17.437 13.7984 16.7258 14.3087 15.9793C15.2201 15.9025 16.1251 15.763 17.0174 15.5619C17.058 15.7266 17.0939 15.8877 17.1252 16.0454C17.3187 16.9118 17.3512 17.8064 17.2209 18.6845L17.2217 18.6837ZM17.947 14.4167C17.8365 14.4532 17.7243 14.488 17.6096 14.5211C17.3301 13.6547 16.9919 12.8084 16.5974 11.988C16.9773 11.1788 17.3027 10.345 17.5713 9.49237C17.7748 9.55063 17.9739 9.61411 18.1652 9.67933C20.0174 10.3159 21.1461 11.2585 21.1461 11.9837C21.1461 12.7576 19.9261 13.7611 17.9461 14.4167H17.947Z" fill="black"/>
<path d="M12 10.1976C12.3533 10.1976 12.6987 10.3024 12.9925 10.4988C13.2862 10.6951 13.5151 10.9741 13.6503 11.3006C13.7854 11.6271 13.8207 11.9863 13.7516 12.3328C13.6826 12.6793 13.5123 12.9976 13.2623 13.2473C13.0124 13.497 12.6939 13.667 12.3474 13.7357C12.0008 13.8044 11.6416 13.7688 11.3153 13.6333C10.9889 13.4979 10.7101 13.2687 10.5141 12.9747C10.318 12.6808 10.2136 12.3353 10.2139 11.982C10.2146 11.5087 10.4031 11.0551 10.738 10.7207C11.0728 10.3863 11.5267 10.1985 12 10.1985" fill="black"/>
</svg>
