<svg width="129" height="125" viewBox="0 0 129 125" fill="none" xmlns="http://www.w3.org/2000/svg">
<path d="M83.8297 91.6583C58.5519 91.6583 37.9865 71.08 37.9796 45.7948C37.9865 39.3852 43.204 34.1731 49.5978 34.1731C50.2552 34.1731 50.9056 34.2285 51.5284 34.3392C52.8985 34.5677 54.1994 35.0314 55.3965 35.7305C55.5695 35.8343 55.6871 36.0005 55.7148 36.1943L58.3858 53.0349C58.4204 53.2287 58.3582 53.4295 58.2267 53.5748C56.7528 55.2084 54.8706 56.3851 52.7739 56.9734L51.7637 57.2572L52.1442 58.2332C55.5902 67.01 62.6069 74.0217 71.388 77.4826L72.3637 77.8702L72.6474 76.8597C73.2355 74.7624 74.4119 72.8796 76.045 71.4053C76.1626 71.2946 76.3218 71.2392 76.4809 71.2392C76.5155 71.2392 76.5501 71.2392 76.5917 71.2461L93.4273 73.9179C93.628 73.9525 93.7941 74.0632 93.8979 74.2363C94.5899 75.4338 95.0535 76.742 95.2888 78.1125C95.3995 78.7216 95.4479 79.3653 95.4479 80.0367C95.4479 86.4394 90.2373 91.6514 83.8297 91.6583Z" fill="black"/>
<path d="M128.656 57.2157C127.292 41.8079 120.234 27.5144 108.782 16.9726C97.2609 6.36843 82.3142 0.526459 66.6826 0.526459C32.3746 0.526459 4.46048 28.4488 4.46048 62.7669C4.46048 74.2847 7.63657 85.5049 13.6498 95.2785L0.23938 124.973L43.1763 120.398C50.6427 123.457 58.545 125.007 66.6757 125.007C68.8138 125.007 71.0074 124.897 73.2079 124.668C75.1454 124.461 77.1037 124.156 79.0274 123.768C107.758 117.961 128.732 92.4544 128.898 63.0992V62.7669C128.898 60.898 128.815 59.0292 128.649 57.2226L128.656 57.2157ZM44.8301 107.364L21.0747 109.897L28.1675 94.1779L26.7489 92.2744C26.6451 92.136 26.5413 91.9975 26.4237 91.8383C20.2651 83.3315 17.0128 73.2811 17.0128 62.7739C17.0128 35.3775 39.2943 13.0895 66.6826 13.0895C92.3409 13.0895 114.09 33.1141 116.186 58.6762C116.297 60.0467 116.359 61.4241 116.359 62.7808C116.359 63.1684 116.352 63.5491 116.345 63.9575C115.82 86.8754 99.8142 106.339 77.422 111.295C75.7128 111.676 73.9621 111.967 72.2184 112.154C70.4054 112.361 68.544 112.465 66.6964 112.465C60.1158 112.465 53.722 111.192 47.681 108.672C47.0098 108.402 46.3524 108.111 45.7366 107.814L44.8371 107.378L44.8301 107.364Z" fill="black"/>
</svg>
